# Blender v2.77 (sub 0) OBJ File: 'cube.blend'
# www.blender.org
mtllib cube.mtl
o Cube.002
v 0.610901 0.080805 0.010918
v 0.143109 0.080805 -0.456874
v 0.610901 0.080805 -0.456874
v 0.143109 0.548598 -0.456873
v 0.610901 0.548598 0.010920
v 0.610901 0.548598 -0.456873
v 0.143109 0.080805 0.010918
v 0.143109 0.548598 0.010919
vn 0.0000 -1.0000 -0.0000
vn -0.0000 1.0000 0.0000
vn 1.0000 -0.0000 0.0000
vn -0.0000 -0.0000 1.0000
vn -1.0000 -0.0000 0.0000
vn 0.0000 0.0000 -1.0000
usemtl Material
s 1
f 1//1 2//1 3//1
f 4//2 5//2 6//2
f 6//3 1//3 3//3
f 5//4 7//4 1//4
f 8//5 2//5 7//5
f 3//6 4//6 6//6
f 1//1 7//1 2//1
f 4//2 8//2 5//2
f 6//3 5//3 1//3
f 5//4 8//4 7//4
f 8//5 4//5 2//5
f 3//6 2//6 4//6
